<mxfile host="app.diagrams.net" modified="2023-09-15T07:31:11.597Z" agent="Mozilla/5.0 (Windows NT 10.0; Win64; x64) AppleWebKit/537.36 (KHTML, like Gecko) Chrome/116.0.0.0 Safari/537.36" etag="pCuByAbBjO1H7NKmG3g1" version="21.7.5" type="github">
  <diagram name="第 1 页" id="nyQxbL8O3MuU9sCU6VgJ">
    <mxGraphModel dx="2389" dy="862" grid="1" gridSize="10" guides="1" tooltips="1" connect="1" arrows="1" fold="1" page="1" pageScale="1" pageWidth="827" pageHeight="1169" math="0" shadow="0">
      <root>
        <mxCell id="0" />
        <mxCell id="1" parent="0" />
        <mxCell id="A_Dby5q7uh1Tls5CIrSd-2" value="" style="group;movable=0;resizable=0;rotatable=0;deletable=0;editable=0;locked=1;connectable=0;" parent="1" vertex="1" connectable="0">
          <mxGeometry x="-480" y="420" width="400" height="620" as="geometry" />
        </mxCell>
        <mxCell id="A_Dby5q7uh1Tls5CIrSd-76" value="" style="group;movable=0;resizable=0;rotatable=0;deletable=0;editable=0;locked=1;connectable=0;" parent="A_Dby5q7uh1Tls5CIrSd-2" vertex="1" connectable="0">
          <mxGeometry width="400" height="620" as="geometry" />
        </mxCell>
        <mxCell id="3oQqdV5vQzyjavXCUwHd-26" value="功能" style="swimlane;whiteSpace=wrap;html=1;movable=0;resizable=0;rotatable=0;deletable=0;editable=0;locked=1;connectable=0;" parent="A_Dby5q7uh1Tls5CIrSd-76" vertex="1">
          <mxGeometry width="200" height="620" as="geometry" />
        </mxCell>
        <mxCell id="3oQqdV5vQzyjavXCUwHd-27" value="呈报" style="swimlane;horizontal=0;whiteSpace=wrap;html=1;movable=0;resizable=0;rotatable=0;deletable=0;editable=0;locked=1;connectable=0;" parent="3oQqdV5vQzyjavXCUwHd-26" vertex="1">
          <mxGeometry y="24" width="400" height="200" as="geometry" />
        </mxCell>
        <mxCell id="3oQqdV5vQzyjavXCUwHd-28" value="审批" style="swimlane;horizontal=0;whiteSpace=wrap;html=1;movable=0;resizable=0;rotatable=0;deletable=0;editable=0;locked=1;connectable=0;" parent="3oQqdV5vQzyjavXCUwHd-26" vertex="1">
          <mxGeometry y="224" width="400" height="200" as="geometry" />
        </mxCell>
        <mxCell id="3oQqdV5vQzyjavXCUwHd-29" value="审批完成文书生成" style="swimlane;horizontal=0;whiteSpace=wrap;html=1;movable=0;resizable=0;rotatable=0;deletable=0;editable=0;locked=1;connectable=0;" parent="3oQqdV5vQzyjavXCUwHd-26" vertex="1">
          <mxGeometry y="424" width="200" height="196" as="geometry" />
        </mxCell>
        <mxCell id="3oQqdV5vQzyjavXCUwHd-34" value="服务" style="swimlane;whiteSpace=wrap;html=1;movable=0;resizable=0;rotatable=0;deletable=0;editable=0;locked=1;connectable=0;" parent="A_Dby5q7uh1Tls5CIrSd-76" vertex="1">
          <mxGeometry x="200" width="200" height="620" as="geometry" />
        </mxCell>
        <mxCell id="A_Dby5q7uh1Tls5CIrSd-4" value="服务调用流程" style="rounded=0;whiteSpace=wrap;html=1;movable=0;resizable=0;rotatable=0;deletable=0;editable=0;locked=1;connectable=0;" parent="1" vertex="1">
          <mxGeometry x="-480" y="400" width="400" height="20" as="geometry" />
        </mxCell>
        <mxCell id="A_Dby5q7uh1Tls5CIrSd-12" style="edgeStyle=orthogonalEdgeStyle;rounded=0;orthogonalLoop=1;jettySize=auto;html=1;exitX=1;exitY=0.5;exitDx=0;exitDy=0;entryX=0;entryY=0.5;entryDx=0;entryDy=0;movable=0;resizable=0;rotatable=0;deletable=0;editable=0;locked=1;connectable=0;" parent="1" source="A_Dby5q7uh1Tls5CIrSd-6" target="A_Dby5q7uh1Tls5CIrSd-10" edge="1">
          <mxGeometry relative="1" as="geometry" />
        </mxCell>
        <mxCell id="A_Dby5q7uh1Tls5CIrSd-22" style="edgeStyle=orthogonalEdgeStyle;rounded=0;orthogonalLoop=1;jettySize=auto;html=1;exitX=0.5;exitY=1;exitDx=0;exitDy=0;entryX=0.5;entryY=0;entryDx=0;entryDy=0;movable=0;resizable=0;rotatable=0;deletable=0;editable=0;locked=1;connectable=0;" parent="1" source="A_Dby5q7uh1Tls5CIrSd-6" target="A_Dby5q7uh1Tls5CIrSd-14" edge="1">
          <mxGeometry relative="1" as="geometry" />
        </mxCell>
        <mxCell id="A_Dby5q7uh1Tls5CIrSd-6" value="填写表单" style="rounded=1;whiteSpace=wrap;html=1;movable=0;resizable=0;rotatable=0;deletable=0;editable=0;locked=1;connectable=0;" parent="1" vertex="1">
          <mxGeometry x="-405" y="510" width="50" height="20" as="geometry" />
        </mxCell>
        <mxCell id="A_Dby5q7uh1Tls5CIrSd-11" style="edgeStyle=orthogonalEdgeStyle;rounded=0;orthogonalLoop=1;jettySize=auto;html=1;exitX=0.5;exitY=1;exitDx=0;exitDy=0;entryX=0.5;entryY=0;entryDx=0;entryDy=0;movable=0;resizable=0;rotatable=0;deletable=0;editable=0;locked=1;connectable=0;" parent="1" source="A_Dby5q7uh1Tls5CIrSd-7" target="A_Dby5q7uh1Tls5CIrSd-6" edge="1">
          <mxGeometry relative="1" as="geometry" />
        </mxCell>
        <mxCell id="A_Dby5q7uh1Tls5CIrSd-7" value="开始" style="ellipse;whiteSpace=wrap;html=1;movable=0;resizable=0;rotatable=0;deletable=0;editable=0;locked=1;connectable=0;" parent="1" vertex="1">
          <mxGeometry x="-400" y="460" width="40" height="20" as="geometry" />
        </mxCell>
        <mxCell id="A_Dby5q7uh1Tls5CIrSd-15" style="edgeStyle=orthogonalEdgeStyle;rounded=0;orthogonalLoop=1;jettySize=auto;html=1;exitX=0;exitY=0.5;exitDx=0;exitDy=0;entryX=0;entryY=0.5;entryDx=0;entryDy=0;movable=0;resizable=0;rotatable=0;deletable=0;editable=0;locked=1;connectable=0;" parent="1" source="A_Dby5q7uh1Tls5CIrSd-14" target="A_Dby5q7uh1Tls5CIrSd-6" edge="1">
          <mxGeometry relative="1" as="geometry" />
        </mxCell>
        <mxCell id="A_Dby5q7uh1Tls5CIrSd-16" value="否" style="edgeLabel;html=1;align=center;verticalAlign=middle;resizable=0;points=[];movable=0;rotatable=0;deletable=0;editable=0;locked=1;connectable=0;" parent="A_Dby5q7uh1Tls5CIrSd-15" vertex="1" connectable="0">
          <mxGeometry x="0.1058" y="-1" relative="1" as="geometry">
            <mxPoint as="offset" />
          </mxGeometry>
        </mxCell>
        <mxCell id="A_Dby5q7uh1Tls5CIrSd-24" style="edgeStyle=orthogonalEdgeStyle;rounded=0;orthogonalLoop=1;jettySize=auto;html=1;exitX=0.5;exitY=1;exitDx=0;exitDy=0;entryX=0.5;entryY=0;entryDx=0;entryDy=0;movable=0;resizable=0;rotatable=0;deletable=0;editable=0;locked=1;connectable=0;" parent="1" source="A_Dby5q7uh1Tls5CIrSd-14" target="A_Dby5q7uh1Tls5CIrSd-23" edge="1">
          <mxGeometry relative="1" as="geometry" />
        </mxCell>
        <mxCell id="A_Dby5q7uh1Tls5CIrSd-14" value="保存成功" style="rhombus;whiteSpace=wrap;html=1;movable=0;resizable=0;rotatable=0;deletable=0;editable=0;locked=1;connectable=0;" parent="1" vertex="1">
          <mxGeometry x="-407.5" y="550" width="55" height="30" as="geometry" />
        </mxCell>
        <mxCell id="A_Dby5q7uh1Tls5CIrSd-29" style="edgeStyle=orthogonalEdgeStyle;rounded=0;orthogonalLoop=1;jettySize=auto;html=1;exitX=1;exitY=0.25;exitDx=0;exitDy=0;entryX=0;entryY=0.5;entryDx=0;entryDy=0;movable=0;resizable=0;rotatable=0;deletable=0;editable=0;locked=1;connectable=0;" parent="1" source="A_Dby5q7uh1Tls5CIrSd-23" target="A_Dby5q7uh1Tls5CIrSd-27" edge="1">
          <mxGeometry relative="1" as="geometry" />
        </mxCell>
        <mxCell id="A_Dby5q7uh1Tls5CIrSd-23" value="上报" style="rounded=1;whiteSpace=wrap;html=1;movable=0;resizable=0;rotatable=0;deletable=0;editable=0;locked=1;connectable=0;" parent="1" vertex="1">
          <mxGeometry x="-405" y="590" width="50" height="20" as="geometry" />
        </mxCell>
        <mxCell id="A_Dby5q7uh1Tls5CIrSd-31" style="edgeStyle=orthogonalEdgeStyle;rounded=0;orthogonalLoop=1;jettySize=auto;html=1;exitX=0.5;exitY=1;exitDx=0;exitDy=0;entryX=0.5;entryY=0;entryDx=0;entryDy=0;movable=0;resizable=0;rotatable=0;deletable=0;editable=0;locked=1;connectable=0;" parent="1" source="A_Dby5q7uh1Tls5CIrSd-27" target="A_Dby5q7uh1Tls5CIrSd-30" edge="1">
          <mxGeometry relative="1" as="geometry" />
        </mxCell>
        <mxCell id="A_Dby5q7uh1Tls5CIrSd-27" value="审批服务" style="rounded=0;whiteSpace=wrap;html=1;movable=0;resizable=0;rotatable=0;deletable=0;editable=0;locked=1;connectable=0;" parent="1" vertex="1">
          <mxGeometry x="-240" y="540" width="80" height="20" as="geometry" />
        </mxCell>
        <mxCell id="A_Dby5q7uh1Tls5CIrSd-34" value="" style="edgeStyle=orthogonalEdgeStyle;rounded=0;orthogonalLoop=1;jettySize=auto;html=1;movable=0;resizable=0;rotatable=0;deletable=0;editable=0;locked=1;connectable=0;" parent="1" source="A_Dby5q7uh1Tls5CIrSd-30" target="A_Dby5q7uh1Tls5CIrSd-33" edge="1">
          <mxGeometry relative="1" as="geometry" />
        </mxCell>
        <mxCell id="A_Dby5q7uh1Tls5CIrSd-35" value="是" style="edgeLabel;html=1;align=center;verticalAlign=middle;resizable=0;points=[];movable=0;rotatable=0;deletable=0;editable=0;locked=1;connectable=0;" parent="A_Dby5q7uh1Tls5CIrSd-34" vertex="1" connectable="0">
          <mxGeometry x="-0.5697" relative="1" as="geometry">
            <mxPoint as="offset" />
          </mxGeometry>
        </mxCell>
        <mxCell id="A_Dby5q7uh1Tls5CIrSd-36" style="edgeStyle=orthogonalEdgeStyle;rounded=0;orthogonalLoop=1;jettySize=auto;html=1;exitX=0.5;exitY=1;exitDx=0;exitDy=0;entryX=0.5;entryY=1;entryDx=0;entryDy=0;movable=0;resizable=0;rotatable=0;deletable=0;editable=0;locked=1;connectable=0;" parent="1" source="A_Dby5q7uh1Tls5CIrSd-30" target="A_Dby5q7uh1Tls5CIrSd-23" edge="1">
          <mxGeometry relative="1" as="geometry" />
        </mxCell>
        <mxCell id="A_Dby5q7uh1Tls5CIrSd-37" value="重新上报" style="edgeLabel;html=1;align=center;verticalAlign=middle;resizable=0;points=[];movable=0;rotatable=0;deletable=0;editable=0;locked=1;connectable=0;" parent="A_Dby5q7uh1Tls5CIrSd-36" vertex="1" connectable="0">
          <mxGeometry x="0.122" y="-3" relative="1" as="geometry">
            <mxPoint as="offset" />
          </mxGeometry>
        </mxCell>
        <mxCell id="A_Dby5q7uh1Tls5CIrSd-30" value="上报成功" style="rhombus;whiteSpace=wrap;html=1;movable=0;resizable=0;rotatable=0;deletable=0;editable=0;locked=1;connectable=0;" parent="1" vertex="1">
          <mxGeometry x="-227.5" y="580" width="55" height="30" as="geometry" />
        </mxCell>
        <mxCell id="A_Dby5q7uh1Tls5CIrSd-33" value="结束" style="ellipse;whiteSpace=wrap;html=1;movable=0;resizable=0;rotatable=0;deletable=0;editable=0;locked=1;connectable=0;" parent="1" vertex="1">
          <mxGeometry x="-140" y="585" width="40" height="20" as="geometry" />
        </mxCell>
        <mxCell id="A_Dby5q7uh1Tls5CIrSd-40" style="edgeStyle=orthogonalEdgeStyle;rounded=0;orthogonalLoop=1;jettySize=auto;html=1;exitX=0.5;exitY=1;exitDx=0;exitDy=0;movable=0;resizable=0;rotatable=0;deletable=0;editable=0;locked=1;connectable=0;" parent="1" source="A_Dby5q7uh1Tls5CIrSd-38" edge="1">
          <mxGeometry relative="1" as="geometry">
            <mxPoint x="-380" y="700" as="targetPoint" />
          </mxGeometry>
        </mxCell>
        <mxCell id="A_Dby5q7uh1Tls5CIrSd-38" value="开始" style="ellipse;whiteSpace=wrap;html=1;movable=0;resizable=0;rotatable=0;deletable=0;editable=0;locked=1;connectable=0;" parent="1" vertex="1">
          <mxGeometry x="-400" y="660" width="40" height="20" as="geometry" />
        </mxCell>
        <mxCell id="A_Dby5q7uh1Tls5CIrSd-43" style="edgeStyle=orthogonalEdgeStyle;rounded=0;orthogonalLoop=1;jettySize=auto;html=1;exitX=0.5;exitY=1;exitDx=0;exitDy=0;movable=0;resizable=0;rotatable=0;deletable=0;editable=0;locked=1;connectable=0;" parent="1" source="A_Dby5q7uh1Tls5CIrSd-39" edge="1">
          <mxGeometry relative="1" as="geometry">
            <mxPoint x="-380" y="740" as="targetPoint" />
          </mxGeometry>
        </mxCell>
        <mxCell id="A_Dby5q7uh1Tls5CIrSd-39" value="查询待办" style="rounded=1;whiteSpace=wrap;html=1;movable=0;resizable=0;rotatable=0;deletable=0;editable=0;locked=1;connectable=0;" parent="1" vertex="1">
          <mxGeometry x="-405" y="700" width="50" height="20" as="geometry" />
        </mxCell>
        <mxCell id="A_Dby5q7uh1Tls5CIrSd-41" value="审批服务" style="rounded=0;whiteSpace=wrap;html=1;movable=0;resizable=0;rotatable=0;deletable=0;editable=0;locked=1;connectable=0;" parent="1" vertex="1">
          <mxGeometry x="-240" y="740" width="80" height="20" as="geometry" />
        </mxCell>
        <mxCell id="A_Dby5q7uh1Tls5CIrSd-44" style="edgeStyle=orthogonalEdgeStyle;rounded=0;orthogonalLoop=1;jettySize=auto;html=1;exitX=1;exitY=0.5;exitDx=0;exitDy=0;entryX=0;entryY=0.5;entryDx=0;entryDy=0;movable=0;resizable=0;rotatable=0;deletable=0;editable=0;locked=1;connectable=0;" parent="1" source="A_Dby5q7uh1Tls5CIrSd-42" target="A_Dby5q7uh1Tls5CIrSd-41" edge="1">
          <mxGeometry relative="1" as="geometry" />
        </mxCell>
        <mxCell id="A_Dby5q7uh1Tls5CIrSd-46" style="edgeStyle=orthogonalEdgeStyle;rounded=0;orthogonalLoop=1;jettySize=auto;html=1;exitX=0.5;exitY=1;exitDx=0;exitDy=0;movable=0;resizable=0;rotatable=0;deletable=0;editable=0;locked=1;connectable=0;" parent="1" source="A_Dby5q7uh1Tls5CIrSd-42" edge="1">
          <mxGeometry relative="1" as="geometry">
            <mxPoint x="-380" y="780" as="targetPoint" />
          </mxGeometry>
        </mxCell>
        <mxCell id="A_Dby5q7uh1Tls5CIrSd-42" value="审批" style="rounded=1;whiteSpace=wrap;html=1;movable=0;resizable=0;rotatable=0;deletable=0;editable=0;locked=1;connectable=0;" parent="1" vertex="1">
          <mxGeometry x="-405" y="740" width="50" height="20" as="geometry" />
        </mxCell>
        <mxCell id="A_Dby5q7uh1Tls5CIrSd-45" value="结束" style="ellipse;whiteSpace=wrap;html=1;movable=0;resizable=0;rotatable=0;deletable=0;editable=0;locked=1;connectable=0;" parent="1" vertex="1">
          <mxGeometry x="-400" y="780" width="40" height="20" as="geometry" />
        </mxCell>
        <mxCell id="A_Dby5q7uh1Tls5CIrSd-66" style="edgeStyle=orthogonalEdgeStyle;rounded=0;orthogonalLoop=1;jettySize=auto;html=1;exitX=1;exitY=0.5;exitDx=0;exitDy=0;movable=0;resizable=0;rotatable=0;deletable=0;editable=0;locked=1;connectable=0;" parent="1" source="A_Dby5q7uh1Tls5CIrSd-47" edge="1">
          <mxGeometry relative="1" as="geometry">
            <mxPoint x="-390" y="860.1428571428571" as="targetPoint" />
          </mxGeometry>
        </mxCell>
        <mxCell id="A_Dby5q7uh1Tls5CIrSd-47" value="开始" style="ellipse;whiteSpace=wrap;html=1;movable=0;resizable=0;rotatable=0;deletable=0;editable=0;locked=1;connectable=0;" parent="1" vertex="1">
          <mxGeometry x="-447.5" y="850" width="40" height="20" as="geometry" />
        </mxCell>
        <mxCell id="A_Dby5q7uh1Tls5CIrSd-51" style="edgeStyle=orthogonalEdgeStyle;rounded=0;orthogonalLoop=1;jettySize=auto;html=1;exitX=1;exitY=0.5;exitDx=0;exitDy=0;entryX=0;entryY=0.5;entryDx=0;entryDy=0;movable=0;resizable=0;rotatable=0;deletable=0;editable=0;locked=1;connectable=0;" parent="1" source="A_Dby5q7uh1Tls5CIrSd-48" target="A_Dby5q7uh1Tls5CIrSd-50" edge="1">
          <mxGeometry relative="1" as="geometry" />
        </mxCell>
        <mxCell id="A_Dby5q7uh1Tls5CIrSd-52" value="保存审批信息" style="edgeLabel;html=1;align=center;verticalAlign=middle;resizable=0;points=[];movable=0;rotatable=0;deletable=0;editable=0;locked=1;connectable=0;" parent="A_Dby5q7uh1Tls5CIrSd-51" vertex="1" connectable="0">
          <mxGeometry x="-0.0463" y="-1" relative="1" as="geometry">
            <mxPoint as="offset" />
          </mxGeometry>
        </mxCell>
        <mxCell id="A_Dby5q7uh1Tls5CIrSd-63" style="edgeStyle=orthogonalEdgeStyle;rounded=0;orthogonalLoop=1;jettySize=auto;html=1;exitX=0.5;exitY=1;exitDx=0;exitDy=0;entryX=0.5;entryY=0;entryDx=0;entryDy=0;movable=0;resizable=0;rotatable=0;deletable=0;editable=0;locked=1;connectable=0;" parent="1" source="A_Dby5q7uh1Tls5CIrSd-48" target="A_Dby5q7uh1Tls5CIrSd-62" edge="1">
          <mxGeometry relative="1" as="geometry" />
        </mxCell>
        <mxCell id="A_Dby5q7uh1Tls5CIrSd-48" value="最后一级审批完成" style="rounded=1;whiteSpace=wrap;html=1;movable=0;resizable=0;rotatable=0;deletable=0;editable=0;locked=1;connectable=0;" parent="1" vertex="1">
          <mxGeometry x="-390" y="845" width="55" height="30" as="geometry" />
        </mxCell>
        <mxCell id="A_Dby5q7uh1Tls5CIrSd-50" value="审批服务" style="rounded=0;whiteSpace=wrap;html=1;movable=0;resizable=0;rotatable=0;deletable=0;editable=0;locked=1;connectable=0;" parent="1" vertex="1">
          <mxGeometry x="-240" y="850" width="80" height="20" as="geometry" />
        </mxCell>
        <mxCell id="A_Dby5q7uh1Tls5CIrSd-53" value="" style="group;movable=0;resizable=0;rotatable=0;deletable=0;editable=0;locked=1;connectable=0;" parent="1" vertex="1" connectable="0">
          <mxGeometry x="-260" y="460" width="100" height="60" as="geometry" />
        </mxCell>
        <mxCell id="A_Dby5q7uh1Tls5CIrSd-8" value="..." style="rounded=0;whiteSpace=wrap;html=1;movable=0;resizable=0;rotatable=0;deletable=0;editable=0;locked=1;connectable=0;" parent="A_Dby5q7uh1Tls5CIrSd-53" vertex="1">
          <mxGeometry width="80" height="20" as="geometry" />
        </mxCell>
        <mxCell id="A_Dby5q7uh1Tls5CIrSd-9" value="" style="rounded=0;whiteSpace=wrap;html=1;movable=0;resizable=0;rotatable=0;deletable=0;editable=0;locked=1;connectable=0;" parent="A_Dby5q7uh1Tls5CIrSd-53" vertex="1">
          <mxGeometry x="10" y="10" width="80" height="20" as="geometry" />
        </mxCell>
        <mxCell id="A_Dby5q7uh1Tls5CIrSd-10" value="&lt;font style=&quot;font-size: 10px;&quot;&gt;64个业务服务，保存业务数据&lt;/font&gt;" style="rounded=0;whiteSpace=wrap;html=1;fontSize=8;movable=0;resizable=0;rotatable=0;deletable=0;editable=0;locked=1;connectable=0;" parent="A_Dby5q7uh1Tls5CIrSd-53" vertex="1">
          <mxGeometry x="20" y="20" width="80" height="40" as="geometry" />
        </mxCell>
        <mxCell id="A_Dby5q7uh1Tls5CIrSd-58" value="" style="group;movable=0;resizable=0;rotatable=0;deletable=0;editable=0;locked=1;connectable=0;" parent="1" vertex="1" connectable="0">
          <mxGeometry x="-240" y="880" width="100" height="60" as="geometry" />
        </mxCell>
        <mxCell id="A_Dby5q7uh1Tls5CIrSd-59" value="..." style="rounded=0;whiteSpace=wrap;html=1;movable=0;resizable=0;rotatable=0;deletable=0;editable=0;locked=1;connectable=0;" parent="A_Dby5q7uh1Tls5CIrSd-58" vertex="1">
          <mxGeometry width="80" height="20" as="geometry" />
        </mxCell>
        <mxCell id="A_Dby5q7uh1Tls5CIrSd-60" value="" style="rounded=0;whiteSpace=wrap;html=1;movable=0;resizable=0;rotatable=0;deletable=0;editable=0;locked=1;connectable=0;" parent="A_Dby5q7uh1Tls5CIrSd-58" vertex="1">
          <mxGeometry x="10" y="10" width="80" height="20" as="geometry" />
        </mxCell>
        <mxCell id="A_Dby5q7uh1Tls5CIrSd-61" value="&lt;font style=&quot;font-size: 10px;&quot;&gt;64个业务服务，保存业务数据&lt;/font&gt;" style="rounded=0;whiteSpace=wrap;html=1;fontSize=8;movable=0;resizable=0;rotatable=0;deletable=0;editable=0;locked=1;connectable=0;" parent="A_Dby5q7uh1Tls5CIrSd-58" vertex="1">
          <mxGeometry x="20" y="20" width="80" height="40" as="geometry" />
        </mxCell>
        <mxCell id="A_Dby5q7uh1Tls5CIrSd-64" style="edgeStyle=orthogonalEdgeStyle;rounded=0;orthogonalLoop=1;jettySize=auto;html=1;exitX=1;exitY=0.5;exitDx=0;exitDy=0;entryX=0;entryY=0.5;entryDx=0;entryDy=0;movable=0;resizable=0;rotatable=0;deletable=0;editable=0;locked=1;connectable=0;" parent="1" source="A_Dby5q7uh1Tls5CIrSd-62" target="A_Dby5q7uh1Tls5CIrSd-59" edge="1">
          <mxGeometry relative="1" as="geometry" />
        </mxCell>
        <mxCell id="A_Dby5q7uh1Tls5CIrSd-62" value="调用审批后处理接口" style="rounded=1;whiteSpace=wrap;html=1;movable=0;resizable=0;rotatable=0;deletable=0;editable=0;locked=1;connectable=0;" parent="1" vertex="1">
          <mxGeometry x="-396.25" y="910" width="67.5" height="40" as="geometry" />
        </mxCell>
        <mxCell id="A_Dby5q7uh1Tls5CIrSd-70" style="edgeStyle=orthogonalEdgeStyle;rounded=0;orthogonalLoop=1;jettySize=auto;html=1;exitX=1;exitY=0.5;exitDx=0;exitDy=0;entryX=0;entryY=0.5;entryDx=0;entryDy=0;movable=0;resizable=0;rotatable=0;deletable=0;editable=0;locked=1;connectable=0;" parent="1" source="A_Dby5q7uh1Tls5CIrSd-67" target="A_Dby5q7uh1Tls5CIrSd-69" edge="1">
          <mxGeometry relative="1" as="geometry" />
        </mxCell>
        <mxCell id="A_Dby5q7uh1Tls5CIrSd-71" value="是" style="edgeLabel;html=1;align=center;verticalAlign=middle;resizable=0;points=[];movable=0;rotatable=0;deletable=0;editable=0;locked=1;connectable=0;" parent="A_Dby5q7uh1Tls5CIrSd-70" vertex="1" connectable="0">
          <mxGeometry x="-0.1886" relative="1" as="geometry">
            <mxPoint as="offset" />
          </mxGeometry>
        </mxCell>
        <mxCell id="A_Dby5q7uh1Tls5CIrSd-73" style="edgeStyle=orthogonalEdgeStyle;rounded=0;orthogonalLoop=1;jettySize=auto;html=1;entryX=1;entryY=0.5;entryDx=0;entryDy=0;movable=0;resizable=0;rotatable=0;deletable=0;editable=0;locked=1;connectable=0;" parent="1" source="A_Dby5q7uh1Tls5CIrSd-67" target="A_Dby5q7uh1Tls5CIrSd-72" edge="1">
          <mxGeometry relative="1" as="geometry" />
        </mxCell>
        <mxCell id="A_Dby5q7uh1Tls5CIrSd-74" value="失败" style="edgeLabel;html=1;align=center;verticalAlign=middle;resizable=0;points=[];movable=0;rotatable=0;deletable=0;editable=0;locked=1;connectable=0;" parent="A_Dby5q7uh1Tls5CIrSd-73" vertex="1" connectable="0">
          <mxGeometry x="-0.0353" y="2" relative="1" as="geometry">
            <mxPoint as="offset" />
          </mxGeometry>
        </mxCell>
        <mxCell id="A_Dby5q7uh1Tls5CIrSd-67" value="后处理生成文书" style="rhombus;whiteSpace=wrap;html=1;movable=0;resizable=0;rotatable=0;deletable=0;editable=0;locked=1;connectable=0;" parent="1" vertex="1">
          <mxGeometry x="-220" y="965" width="55" height="30" as="geometry" />
        </mxCell>
        <mxCell id="A_Dby5q7uh1Tls5CIrSd-68" style="edgeStyle=orthogonalEdgeStyle;rounded=0;orthogonalLoop=1;jettySize=auto;html=1;exitX=0.5;exitY=1;exitDx=0;exitDy=0;entryX=0.5;entryY=0;entryDx=0;entryDy=0;movable=0;resizable=0;rotatable=0;deletable=0;editable=0;locked=1;connectable=0;" parent="1" source="A_Dby5q7uh1Tls5CIrSd-61" target="A_Dby5q7uh1Tls5CIrSd-67" edge="1">
          <mxGeometry relative="1" as="geometry" />
        </mxCell>
        <mxCell id="A_Dby5q7uh1Tls5CIrSd-69" value="结束" style="ellipse;whiteSpace=wrap;html=1;movable=0;resizable=0;rotatable=0;deletable=0;editable=0;locked=1;connectable=0;" parent="1" vertex="1">
          <mxGeometry x="-140" y="970" width="40" height="20" as="geometry" />
        </mxCell>
        <mxCell id="A_Dby5q7uh1Tls5CIrSd-75" style="edgeStyle=orthogonalEdgeStyle;rounded=0;orthogonalLoop=1;jettySize=auto;html=1;exitX=1;exitY=0.25;exitDx=0;exitDy=0;entryX=0;entryY=0.5;entryDx=0;entryDy=0;movable=0;resizable=0;rotatable=0;deletable=0;editable=0;locked=1;connectable=0;" parent="1" source="A_Dby5q7uh1Tls5CIrSd-72" target="A_Dby5q7uh1Tls5CIrSd-61" edge="1">
          <mxGeometry relative="1" as="geometry" />
        </mxCell>
        <mxCell id="A_Dby5q7uh1Tls5CIrSd-72" value="卷宗中补偿处理" style="rounded=1;whiteSpace=wrap;html=1;movable=0;resizable=0;rotatable=0;deletable=0;editable=0;locked=1;connectable=0;" parent="1" vertex="1">
          <mxGeometry x="-396.25" y="960" width="67.5" height="40" as="geometry" />
        </mxCell>
      </root>
    </mxGraphModel>
  </diagram>
</mxfile>
